<svg width="33" height="36" viewBox="0 0 33 36" fill="none" xmlns="http://www.w3.org/2000/svg">
<g id="Cupcake">
<path id="Oval Copy 7" d="M18.8571 7.32182C18.8571 8.69518 17.8018 9.80852 16.5 9.80852C15.1982 9.80852 14.1428 8.69518 14.1428 7.32182M18.8571 7.32182C18.8571 5.94845 17.8018 4.83511 16.5 4.83511C15.1982 4.83511 14.1428 5.94845 14.1428 7.32182M18.8571 7.32182C18.8571 7.41128 18.8526 7.49965 18.8439 7.58667C23.6432 8.68386 27.2757 13.0888 27.49 18.4269L27.4727 18.1021C27.4907 18.236 27.5 18.3728 27.5 18.512C27.5 20.1142 26.2688 21.4131 24.75 21.4131M14.1428 7.32182C14.1428 7.41128 14.1473 7.49965 14.1577 7.58547C9.48844 8.65374 5.9244 12.8497 5.53528 17.9898L5.52979 18.0833C5.51014 18.2232 5.49997 18.3663 5.49997 18.512C5.49997 20.1142 6.73119 21.4131 8.24997 21.4131M24.75 21.4131C23.3002 21.4131 22.1125 20.2296 22.0075 18.7285L21.9986 18.5295L21.9924 18.7285C21.8874 20.2296 20.6997 21.4131 19.25 21.4131M24.75 21.4131C25.1615 21.4131 25.552 21.3177 25.9026 21.1468L24.3571 29.7021H8.64283L7.09747 21.1468C7.44801 21.3178 7.83843 21.4131 8.24997 21.4131M24.75 21.4131C23.2312 21.4131 22 20.1142 22 18.512M8.24997 21.4131C9.69437 21.4131 10.8787 20.2383 10.9912 18.7451L10.9986 18.5295L11.0075 18.7285C11.1125 20.2296 12.3002 21.4131 13.75 21.4131M8.24997 21.4131C9.76875 21.4131 11 20.1142 11 18.512C11 20.1142 12.2312 21.4131 13.75 21.4131M13.75 21.4131C15.1997 21.4131 16.3874 20.2296 16.4924 18.7285L16.4986 18.5295M13.75 21.4131C15.2632 21.4131 16.4896 20.1236 16.4986 18.5295M16.4986 18.5295L16.5075 18.7285C16.6125 20.2296 17.8002 21.4131 19.25 21.4131M16.4986 18.5295L16.5 18.512C16.5 20.1142 17.7312 21.4131 19.25 21.4131M19.25 21.4131C20.7688 21.4131 22 20.1142 22 18.512M22 18.512L22.0027 18.4067C21.9994 18.4422 22 18.477 22 18.512ZM21.4107 23.8998L21.0178 27.2154M16.6964 23.8998V27.2154M11.9821 23.8998L12.375 27.2154" stroke="#F7F9FC" stroke-width="1.55963" stroke-linejoin="round"/>
</g>
</svg>
