<svg width="22" height="23" viewBox="0 0 22 23" fill="none" xmlns="http://www.w3.org/2000/svg">
<g id="Home">
<mask id="mask0_354_322" style="mask-type:luminance" maskUnits="userSpaceOnUse" x="0" y="0" width="22" height="23">
<path id="Clip 2" fill-rule="evenodd" clip-rule="evenodd" d="M0.0833359 0.54187H21.4373V22.9429H0.0833359V0.54187Z" fill="white"/>
</mask>
<g mask="url(#mask0_354_322)">
<path id="Fill 1" fill-rule="evenodd" clip-rule="evenodd" d="M12.2883 15.4284C13.5425 15.4284 14.5633 16.442 14.5633 17.6878V20.892C14.5633 21.1597 14.7779 21.3743 15.0529 21.3805H17.0383C18.6029 21.3805 19.8748 20.1243 19.8748 18.5805V9.49302C19.8675 8.96177 19.6144 8.46177 19.18 8.12948L12.3123 2.65239C11.3904 1.92219 10.1008 1.92219 9.17584 2.65448L2.355 8.12739C1.90396 8.4701 1.65084 8.9701 1.64563 9.51073V18.5805C1.64563 20.1243 2.91751 21.3805 4.48209 21.3805H6.48626C6.76855 21.3805 6.99771 21.1566 6.99771 20.8816C6.99771 20.8211 7.00501 20.7607 7.01751 20.7034V17.6878C7.01751 16.4493 8.03209 15.4368 9.27688 15.4284H12.2883ZM17.0383 22.943H15.0342C13.8863 22.9159 13.0008 22.0149 13.0008 20.892V17.6878C13.0008 17.3034 12.681 16.9909 12.2883 16.9909H9.28209C8.89771 16.993 8.58001 17.3066 8.58001 17.6878V20.8816C8.58001 20.9597 8.56959 21.0347 8.54771 21.1055C8.43521 22.1368 7.55396 22.943 6.48626 22.943H4.48209C2.05605 22.943 0.0831299 20.9857 0.0831299 18.5805V9.50344C0.0935466 8.46802 0.57063 7.5201 1.39459 6.89614L8.20188 1.4326C9.70084 0.245103 11.7894 0.245103 13.2852 1.43052L20.1415 6.89927C20.9467 7.51281 21.4238 8.45864 21.4373 9.48156V18.5805C21.4373 20.9857 19.4644 22.943 17.0383 22.943V22.943Z" fill="#F3808B"/>
</g>
</g>
</svg>
