<svg width="31" height="33" viewBox="0 0 31 33" fill="none" xmlns="http://www.w3.org/2000/svg">
<g id="Home">
<mask id="mask0_354_19" style="mask-type:luminance" maskUnits="userSpaceOnUse" x="0" y="0" width="31" height="33">
<path id="Clip 2" fill-rule="evenodd" clip-rule="evenodd" d="M0.916672 0.95874H30.8122V32.3202H0.916672V0.95874Z" fill="white"/>
</mask>
<g mask="url(#mask0_354_19)">
<path id="Fill 1" fill-rule="evenodd" clip-rule="evenodd" d="M18.0037 21.7999C19.7595 21.7999 21.1887 23.2189 21.1887 24.963V29.4489C21.1887 29.8237 21.4891 30.1241 21.8741 30.1328H24.6537C26.8441 30.1328 28.6247 28.3741 28.6247 26.2128V13.4903C28.6145 12.7466 28.2601 12.0466 27.652 11.5814L18.0372 3.91344C16.7466 2.89115 14.9412 2.89115 13.6462 3.91636L4.09701 11.5784C3.46555 12.0582 3.11117 12.7582 3.10388 13.5151V26.2128C3.10388 28.3741 4.88451 30.1328 7.07492 30.1328H9.88076C10.276 30.1328 10.5968 29.8193 10.5968 29.4343C10.5968 29.3497 10.607 29.2651 10.6245 29.1849V24.963C10.6245 23.2291 12.0449 21.8116 13.7876 21.7999H18.0037ZM24.6537 32.3203H21.8478C20.2408 32.2824 19.0012 31.0209 19.0012 29.4489V24.963C19.0012 24.4249 18.5535 23.9874 18.0037 23.9874H13.7949C13.2568 23.9903 12.812 24.4293 12.812 24.963V29.4343C12.812 29.5437 12.7974 29.6487 12.7668 29.7478C12.6093 31.1916 11.3755 32.3203 9.88076 32.3203H7.07492C3.67847 32.3203 0.916382 29.5801 0.916382 26.2128V13.5049C0.930965 12.0553 1.59888 10.7282 2.75242 9.85469L12.2826 2.20574C14.3812 0.543236 17.3051 0.543236 19.3993 2.20282L28.9981 9.85907C30.1253 10.718 30.7933 12.0422 30.8122 13.4743V26.2128C30.8122 29.5801 28.0501 32.3203 24.6537 32.3203Z" fill="#FAF3F3"/>
</g>
</g>
</svg>
