<svg width="24" height="24" viewBox="0 0 24 24" fill="none" xmlns="http://www.w3.org/2000/svg">
<g id="icn shopping-cart .icn-sm" clip-path="url(#clip0_143_679)">
<path id="Vector" d="M9.68512 21.7565C9.68512 22.4408 9.14404 22.9782 8.49762 22.9782C7.8512 22.9782 7.31012 22.4408 7.31012 21.7565C7.31012 21.0722 7.8512 20.5348 8.49762 20.5348C9.14404 20.5348 9.68512 21.0722 9.68512 21.7565Z" fill="#F7F9FC" stroke="#F7F9FC"/>
<path id="Vector_2" d="M19.9375 21.7565C19.9375 22.4408 19.3964 22.9782 18.75 22.9782C18.1036 22.9782 17.5625 22.4408 17.5625 21.7565C17.5625 21.0722 18.1036 20.5348 18.75 20.5348C19.3964 20.5348 19.9375 21.0722 19.9375 21.7565Z" fill="#F7F9FC" stroke="#F7F9FC"/>
<path id="Vector_3" d="M22.9183 3.41177L22.9184 3.41166C22.8944 3.38144 22.8647 3.35781 22.8321 3.34179C22.7998 3.32598 22.7651 3.31779 22.7302 3.31737H7.80133L7.97029 3.8478H21.7498H22.3706L22.2383 4.45434L20.2358 13.6369L20.15 14.0304H19.7473H8.49731H8.12867L8.01967 13.6783L4.59298 2.60817C4.59288 2.60784 4.59277 2.6075 4.59266 2.60717C4.57939 2.56566 4.55685 2.52894 4.52776 2.49972C4.49848 2.4703 4.46349 2.44934 4.42616 2.43772L4.42521 2.43742L1.35022 1.47325C1.35022 1.47325 1.35022 1.47325 1.35021 1.47325C1.31943 1.4636 1.28733 1.46029 1.2556 1.46336C1.22385 1.46643 1.19263 1.47588 1.16368 1.49153C1.1052 1.52314 1.05849 1.57891 1.03732 1.64921C1.01608 1.71974 1.02338 1.79593 1.05672 1.86014C1.08988 1.92398 1.14481 1.96876 1.20675 1.98822C1.2068 1.98824 1.20684 1.98825 1.20689 1.98827L3.899 2.82988L4.14956 2.90822L4.22735 3.15895L7.66985 14.2546L7.7687 14.5732L7.51247 14.7868L6.30179 15.7961L6.23513 15.8641C6.01243 16.1317 5.88522 16.4709 5.87702 16.8252C5.86874 17.1834 5.98265 17.5321 6.19736 17.812C6.35251 18.0032 6.54839 18.1542 6.76905 18.2538C6.9912 18.3541 7.23277 18.3998 7.4746 18.3876L7.4872 18.3869H7.49981H20.0173C20.0803 18.3869 20.1429 18.3615 20.1906 18.3128C20.2386 18.2638 20.2673 18.1953 20.2673 18.1217C20.2673 18.0482 20.2386 17.9796 20.1906 17.9306C20.1429 17.882 20.0803 17.8565 20.0173 17.8565H7.37981H7.3711L7.36239 17.8562C7.18819 17.8501 7.0191 17.7983 6.87153 17.7066C6.72401 17.6149 6.60334 17.4866 6.52021 17.3352M22.9183 3.41177L6.52021 17.3352M22.9183 3.41177L22.9267 3.42179C22.9522 3.45218 22.9711 3.48884 22.9814 3.5292C22.9913 3.56829 22.9926 3.60927 22.9853 3.64903M22.9183 3.41177L22.9853 3.64903M6.52021 17.3352C6.43711 17.1838 6.39403 17.0138 6.39447 16.8415C6.3949 16.6692 6.43885 16.4994 6.52273 16.3485L6.56706 16.2687L6.63671 16.2097L8.44421 14.6793L8.58406 14.5608H8.76731H20.3473H20.3598L20.3598 14.561C20.4148 14.5624 20.4699 14.5444 20.5156 14.508C20.5615 14.4715 20.5954 14.4183 20.6091 14.3562L20.6092 14.3556L22.9853 3.64903M6.52021 17.3352L22.9853 3.64903" fill="#F7F9FC" stroke="#F7F9FC"/>
</g>
<defs>
<clipPath id="clip0_143_679">
<rect width="24" height="22.9565" fill="white" transform="translate(0 0.521729)"/>
</clipPath>
</defs>
</svg>
