<svg width="36" height="34" viewBox="0 0 36 34" fill="none" xmlns="http://www.w3.org/2000/svg">
<g id="Pastry Bag">
<path id="Shape" d="M5.99997 28C6.24474 27.959 6.48688 27.9178 6.72639 27.8765L8.13183 27.627C8.58979 27.5434 9.03721 27.4592 9.4741 27.3744L10.7532 27.1186L11.9691 26.8596C12.1665 26.8161 12.3612 26.7726 12.5534 26.7288L13.6745 26.465C13.8561 26.4208 14.035 26.3764 14.2114 26.3319L15.2377 26.0633C16.2325 25.7931 17.1325 25.5181 17.9377 25.2383L18.7114 24.9569C20.3191 24.3438 21.482 23.7081 22.2 23.05C25.1823 20.3162 25.1823 15.8838 22.2 13.15C19.2176 10.4162 14.3823 10.4162 11.4 13.15C10.682 13.8081 9.98857 14.8741 9.31969 16.3479L9.01272 17.0571C8.70749 17.7952 8.40749 18.6202 8.11272 19.5321L7.81969 20.4729C7.7226 20.7962 7.62608 21.1291 7.53015 21.4716L7.24409 22.5283L6.96152 23.6429C6.91472 23.8335 6.86806 24.0265 6.82154 24.2219L6.5442 25.4234C6.45233 25.8335 6.36105 26.2533 6.27034 26.6827L5.99997 28ZM5.99997 28L7.6973 27.6871L9.6822 27.3098L11.3492 26.978L12.6982 26.6918L13.5013 26.507L14.3045 26.3038L15.2083 26.0569L16.2128 25.7663C16.3886 25.7142 16.5686 25.6603 16.7528 25.6046L17.9082 25.2485L7.62926 21.1219L5.99997 28ZM25.44 12.16L24.9 12.655L33 11.17L24.36 3.25L22.74 10.675L23.28 10.18M25.44 12.16L23.28 10.18M25.44 12.16L23.28 14.14L21.12 12.16L23.28 10.18M29.25 6.6875L26.25 9.4375" stroke="#F7F9FC" stroke-width="1.55963" stroke-linejoin="round"/>
</g>
</svg>
